  0
SECTION
  2
TABLES
  0
TABLE
  2
VPORT
 70
     1
  0
VPORT
  2
*ACTIVE
 70
     0
 10
0.0
 20
0.0
 11
1.0
 21
1.0
 12
173.680943
 22
0
 13
0.0
 23
0.0
 14
1.0
 24
1.0
 15
0.0
 25
0.0
 16
0.0
 26
0.0
 36
1.0
 17
0.0
 27
0.0
 37
0.0
 40
2000
 41
1.6
 42
50.0
 43
0.0
 44
0.0
 50
0.0
 51
0.0
 71
     0
 72
  1000
 73
     1
 74
     3
 75
     0
 76
     0
 77
     0
 78
     0
  0
ENDTAB
  0
TABLE
  2
LAYER
 70
    13
  0
LAYER
  2
0
 70
     0
 62
     7
  6
CONTINUOUS
  0
LAYER
  2
3D-Nasen-Endleiste
 70
     0
 62
     5
  6
CONTINUOUS
  0
ENDTAB
  0
ENDSEC
  0
SECTION
  2
ENTITIES
  0
LINE
  8
3D-Nasen-Endleiste
10
320.541885
20
-1000
30
0
11
335.605215
21
-988
31
0
  0
LINE
  8
3D-Nasen-Endleiste
10
293.111885
20
-1000
30
0
11
271.605215
21
-988
31
0
  0
LINE
  8
3D-Nasen-Endleiste
10
335.605215
20
-988
30
0
11
343.845218
21
-968
31
0
  0
LINE
  8
3D-Nasen-Endleiste
10
271.605215
20
-988
30
0
11
251.845218
21
-968
31
0
  0
LINE
  8
3D-Nasen-Endleiste
10
343.845218
20
-968
30
0
11
347.361887
21
-928
31
0
  0
LINE
  8
3D-Nasen-Endleiste
10
251.845218
20
-968
30
0
11
223.551887
21
-928
31
0
  0
LINE
  8
3D-Nasen-Endleiste
10
347.361887
20
-928
30
0
11
345.298551
21
-888
31
0
  0
LINE
  8
3D-Nasen-Endleiste
10
223.551887
20
-928
30
0
11
200.858551
21
-888
31
0
  0
LINE
  8
3D-Nasen-Endleiste
10
345.298551
20
-888
30
0
11
339.775216
21
-848
31
0
  0
LINE
  8
3D-Nasen-Endleiste
10
200.858551
20
-888
30
0
11
181.045216
21
-848
31
0
  0
LINE
  8
3D-Nasen-Endleiste
10
339.775216
20
-848
30
0
11
322.689986
21
-770.67
31
0
  0
LINE
  8
3D-Nasen-Endleiste
10
181.045216
20
-848
30
0
11
147.899986
21
-770.67
31
0
  0
LINE
  8
3D-Nasen-Endleiste
10
322.689986
20
-770.67
30
0
11
303.741181
21
-693.34
31
0
  0
LINE
  8
3D-Nasen-Endleiste
10
147.899986
20
-770.67
30
0
11
120.181181
21
-693.34
31
0
  0
LINE
  8
3D-Nasen-Endleiste
10
303.741181
20
-693.34
30
0
11
284.695541
21
-616.01
31
0
  0
LINE
  8
3D-Nasen-Endleiste
10
120.181181
20
-693.34
30
0
11
96.315541
21
-616.01
31
0
  0
LINE
  8
3D-Nasen-Endleiste
10
284.695541
20
-616.01
30
0
11
266.723178
21
-538.68
31
0
  0
LINE
  8
3D-Nasen-Endleiste
10
96.315541
20
-616.01
30
0
11
73.863178
21
-538.68
31
0
  0
LINE
  8
3D-Nasen-Endleiste
10
266.723178
20
-538.68
30
0
11
250.678209
21
-461.35
31
0
  0
LINE
  8
3D-Nasen-Endleiste
10
73.863178
20
-538.68
30
0
11
54.008209
21
-461.35
31
0
  0
LINE
  8
3D-Nasen-Endleiste
10
250.678209
20
-461.35
30
0
11
243.2226
21
-422.68
31
0
  0
LINE
  8
3D-Nasen-Endleiste
10
54.008209
20
-461.35
30
0
11
45.2226
21
-422.68
31
0
  0
LINE
  8
3D-Nasen-Endleiste
10
243.2226
20
-422.68
30
0
11
236.494789
21
-384.01
31
0
  0
LINE
  8
3D-Nasen-Endleiste
10
45.2226
20
-422.68
30
0
11
37.284789
21
-384.01
31
0
  0
LINE
  8
3D-Nasen-Endleiste
10
236.494789
20
-384.01
30
0
11
230.886958
21
-345.34
31
0
  0
LINE
  8
3D-Nasen-Endleiste
10
37.284789
20
-384.01
30
0
11
30.326958
21
-345.34
31
0
  0
LINE
  8
3D-Nasen-Endleiste
10
230.886958
20
-345.34
30
0
11
225.312232
21
-306.67
31
0
  0
LINE
  8
3D-Nasen-Endleiste
10
30.326958
20
-345.34
30
0
11
24.202232
21
-306.67
31
0
  0
LINE
  8
3D-Nasen-Endleiste
10
225.312232
20
-306.67
30
0
11
219.239391
21
-264
31
0
  0
LINE
  8
3D-Nasen-Endleiste
10
24.202232
20
-306.67
30
0
11
18.129391
21
-264
31
0
  0
LINE
  8
3D-Nasen-Endleiste
10
219.239391
20
-264
30
0
11
210.077266
21
-178.67
31
0
  0
LINE
  8
3D-Nasen-Endleiste
10
18.129391
20
-264
30
0
11
8.407266
21
-178.67
31
0
  0
LINE
  8
3D-Nasen-Endleiste
10
210.077266
20
-178.67
30
0
11
204.361022
21
-93.34
31
0
  0
LINE
  8
3D-Nasen-Endleiste
10
8.407266
20
-178.67
30
0
11
2.141022
21
-93.34
31
0
  0
LINE
  8
3D-Nasen-Endleiste
10
204.361022
20
-93.34
30
0
11
202.660033
21
-50.67
31
0
  0
LINE
  8
3D-Nasen-Endleiste
10
2.141022
20
-93.34
30
0
11
0.440033
21
-50.67
31
0
  0
LINE
  8
3D-Nasen-Endleiste
10
202.660033
20
-50.67
30
0
11
202.22
21
-8
31
0
  0
LINE
  8
3D-Nasen-Endleiste
10
0.440033
20
-50.67
30
0
11
0
21
-8
31
0
  0
LINE
  8
3D-Nasen-Endleiste
10
202.22
20
-8
30
0
11
202.22
21
0
31
0
  0
LINE
  8
3D-Nasen-Endleiste
10
0
20
-8
30
0
11
0
21
0
31
0
  0
LINE
  8
3D-Nasen-Endleiste
10
202.22
20
0
30
0
11
202.22
21
8
31
0
  0
LINE
  8
3D-Nasen-Endleiste
10
0
20
0
30
0
11
0
21
8
31
0
  0
LINE
  8
3D-Nasen-Endleiste
10
202.22
20
8
30
0
11
202.660033
21
50.67
31
0
  0
LINE
  8
3D-Nasen-Endleiste
10
0
20
8
30
0
11
0.440033
21
50.67
31
0
  0
LINE
  8
3D-Nasen-Endleiste
10
202.660033
20
50.67
30
0
11
204.361022
21
93.34
31
0
  0
LINE
  8
3D-Nasen-Endleiste
10
0.440033
20
50.67
30
0
11
2.141022
21
93.34
31
0
  0
LINE
  8
3D-Nasen-Endleiste
10
204.361022
20
93.34
30
0
11
210.077266
21
178.67
31
0
  0
LINE
  8
3D-Nasen-Endleiste
10
2.141022
20
93.34
30
0
11
8.407266
21
178.67
31
0
  0
LINE
  8
3D-Nasen-Endleiste
10
210.077266
20
178.67
30
0
11
219.239391
21
264
31
0
  0
LINE
  8
3D-Nasen-Endleiste
10
8.407266
20
178.67
30
0
11
18.129391
21
264
31
0
  0
LINE
  8
3D-Nasen-Endleiste
10
219.239391
20
264
30
0
11
225.312232
21
306.67
31
0
  0
LINE
  8
3D-Nasen-Endleiste
10
18.129391
20
264
30
0
11
24.202232
21
306.67
31
0
  0
LINE
  8
3D-Nasen-Endleiste
10
225.312232
20
306.67
30
0
11
230.886958
21
345.34
31
0
  0
LINE
  8
3D-Nasen-Endleiste
10
24.202232
20
306.67
30
0
11
30.326958
21
345.34
31
0
  0
LINE
  8
3D-Nasen-Endleiste
10
230.886958
20
345.34
30
0
11
236.494789
21
384.01
31
0
  0
LINE
  8
3D-Nasen-Endleiste
10
30.326958
20
345.34
30
0
11
37.284789
21
384.01
31
0
  0
LINE
  8
3D-Nasen-Endleiste
10
236.494789
20
384.01
30
0
11
243.2226
21
422.68
31
0
  0
LINE
  8
3D-Nasen-Endleiste
10
37.284789
20
384.01
30
0
11
45.2226
21
422.68
31
0
  0
LINE
  8
3D-Nasen-Endleiste
10
243.2226
20
422.68
30
0
11
250.678209
21
461.35
31
0
  0
LINE
  8
3D-Nasen-Endleiste
10
45.2226
20
422.68
30
0
11
54.008209
21
461.35
31
0
  0
LINE
  8
3D-Nasen-Endleiste
10
250.678209
20
461.35
30
0
11
266.723178
21
538.68
31
0
  0
LINE
  8
3D-Nasen-Endleiste
10
54.008209
20
461.35
30
0
11
73.863178
21
538.68
31
0
  0
LINE
  8
3D-Nasen-Endleiste
10
266.723178
20
538.68
30
0
11
284.695541
21
616.01
31
0
  0
LINE
  8
3D-Nasen-Endleiste
10
73.863178
20
538.68
30
0
11
96.315541
21
616.01
31
0
  0
LINE
  8
3D-Nasen-Endleiste
10
284.695541
20
616.01
30
0
11
303.741181
21
693.34
31
0
  0
LINE
  8
3D-Nasen-Endleiste
10
96.315541
20
616.01
30
0
11
120.181181
21
693.34
31
0
  0
LINE
  8
3D-Nasen-Endleiste
10
303.741181
20
693.34
30
0
11
322.689986
21
770.67
31
0
  0
LINE
  8
3D-Nasen-Endleiste
10
120.181181
20
693.34
30
0
11
147.899986
21
770.67
31
0
  0
LINE
  8
3D-Nasen-Endleiste
10
322.689986
20
770.67
30
0
11
339.775216
21
848
31
0
  0
LINE
  8
3D-Nasen-Endleiste
10
147.899986
20
770.67
30
0
11
181.045216
21
848
31
0
  0
LINE
  8
3D-Nasen-Endleiste
10
339.775216
20
848
30
0
11
345.298551
21
888
31
0
  0
LINE
  8
3D-Nasen-Endleiste
10
181.045216
20
848
30
0
11
200.858551
21
888
31
0
  0
LINE
  8
3D-Nasen-Endleiste
10
345.298551
20
888
30
0
11
347.361887
21
928
31
0
  0
LINE
  8
3D-Nasen-Endleiste
10
200.858551
20
888
30
0
11
223.551887
21
928
31
0
  0
LINE
  8
3D-Nasen-Endleiste
10
347.361887
20
928
30
0
11
343.845218
21
968
31
0
  0
LINE
  8
3D-Nasen-Endleiste
10
223.551887
20
928
30
0
11
251.845218
21
968
31
0
  0
LINE
  8
3D-Nasen-Endleiste
10
343.845218
20
968
30
0
11
335.605215
21
988
31
0
  0
LINE
  8
3D-Nasen-Endleiste
10
251.845218
20
968
30
0
11
271.605215
21
988
31
0
  0
LINE
  8
3D-Nasen-Endleiste
10
335.605215
20
988
30
0
11
320.541885
21
1000
31
0
  0
LINE
  8
3D-Nasen-Endleiste
10
271.605215
20
988
30
0
11
293.111885
21
1000
31
0
  0
ENDSEC
  0
EOF
